<svg xmlns="http://www.w3.org/2000/svg" aria-hidden="true" fill="currentColor" width="560" height="220" viewBox="0 0 560 220">
  <path id="katakana-project" d="M 155.898438 193.621094 L 129.847656 208.6875 L 129.847656 178.667969 L 155.898438 163.621094 Z M 96.675781 163.621094 L 122.726562 178.667969 L 122.726562 208.6875 L 96.675781 193.621094 Z M 126.289062 142.375 L 152.339844 157.441406 L 126.289062 172.488281 L 100.234375 157.441406 Z M 161.238281 154.359375 L 128.066406 135.195312 C 126.972656 134.546875 125.601562 134.546875 124.507812 135.195312 L 91.335938 154.359375 C 90.222656 154.992188 89.554688 156.160156 89.554688 157.441406 L 89.554688 195.679688 C 89.554688 196.960938 90.222656 198.128906 91.335938 198.761719 L 124.507812 217.925781 C 125.0625 218.261719 125.675781 218.410156 126.289062 218.410156 C 126.898438 218.410156 127.511719 218.261719 128.066406 217.925781 L 161.238281 198.761719 C 162.351562 198.128906 163.019531 196.960938 163.019531 195.679688 L 163.019531 157.441406 C 163.019531 156.160156 162.351562 154.992188 161.238281 154.359375 " fill-opacity="1" fill-rule="nonzero"/><path fill="#000000" d="M 96.675781 36.152344 L 104.277344 40.550781 L 122.726562 51.21875 L 122.726562 81.238281 L 100.273438 68.253906 L 110.601562 62.296875 C 112.304688 61.3125 112.882812 59.125 111.898438 57.417969 C 110.914062 55.710938 108.726562 55.132812 107.039062 56.117188 L 96.675781 62.109375 Z M 126.289062 14.945312 L 152.339844 29.992188 L 126.289062 45.042969 L 100.234375 29.992188 Z M 145.535156 56.117188 C 143.828125 55.132812 141.660156 55.710938 140.675781 57.417969 C 139.695312 59.125 140.269531 61.3125 141.972656 62.296875 L 152.300781 68.253906 L 129.847656 81.238281 L 129.847656 51.21875 L 148.296875 40.550781 L 155.898438 36.152344 L 155.898438 62.109375 Z M 76.257812 81.574219 C 76.851562 81.574219 77.464844 81.425781 78.019531 81.109375 L 93.152344 72.371094 L 124.507812 90.480469 C 125.0625 90.8125 125.675781 90.960938 126.289062 90.960938 C 126.898438 90.960938 127.511719 90.8125 128.066406 90.480469 L 159.421875 72.371094 L 174.554688 81.109375 C 175.109375 81.425781 175.722656 81.574219 176.316406 81.574219 C 177.558594 81.574219 178.746094 80.941406 179.410156 79.792969 C 180.394531 78.105469 179.820312 75.914062 178.113281 74.933594 L 163.019531 66.230469 L 163.019531 29.992188 C 163.019531 28.714844 162.351562 27.546875 161.238281 26.914062 L 128.066406 7.746094 C 126.972656 7.097656 125.601562 7.097656 124.507812 7.746094 L 91.335938 26.914062 C 90.222656 27.546875 89.554688 28.714844 89.554688 29.992188 L 89.554688 66.230469 L 74.460938 74.933594 C 72.753906 75.914062 72.179688 78.105469 73.164062 79.792969 C 73.832031 80.941406 75.015625 81.574219 76.257812 81.574219 " fill-opacity="1" fill-rule="nonzero"/><g clip-path="url(#a06b0aca3c)"><path fill="#000000" d="M 52.65625 145.992188 L 52.65625 115.992188 L 71.125 105.324219 L 78.726562 100.925781 L 78.726562 126.808594 L 66.582031 119.796875 C 64.875 118.8125 62.703125 119.386719 61.722656 121.09375 C 60.738281 122.800781 61.3125 124.972656 63.019531 125.953125 L 75.183594 132.988281 Z M 19.480469 100.925781 L 27.085938 105.324219 L 45.535156 115.992188 L 45.535156 145.992188 L 19.480469 130.945312 Z M 49.09375 79.699219 L 75.164062 94.765625 L 49.09375 109.8125 L 23.042969 94.765625 Z M 95.820312 144.898438 C 96.378906 145.234375 96.988281 145.382812 97.601562 145.382812 C 98.824219 145.382812 100.011719 144.75 100.679688 143.601562 C 101.664062 141.894531 101.089844 139.722656 99.382812 138.738281 L 85.847656 130.925781 L 85.847656 94.765625 C 85.847656 93.484375 85.160156 92.316406 84.066406 91.6875 L 50.875 72.5 C 49.78125 71.871094 48.425781 71.871094 47.3125 72.5 L 14.140625 91.6875 C 13.046875 92.316406 12.363281 93.484375 12.363281 94.765625 L 12.363281 133.003906 C 12.363281 134.285156 13.046875 135.453125 14.140625 136.085938 L 47.3125 155.25 C 47.871094 155.566406 48.484375 155.734375 49.09375 155.734375 C 49.726562 155.734375 50.335938 155.566406 50.875 155.25 L 82.304688 137.105469 L 95.820312 144.898438 " fill-opacity="1" fill-rule="nonzero"/></g><g clip-path="url(#d3483c977e)"><path fill="#000000" d="M 207.039062 145.992188 L 207.039062 115.992188 L 225.492188 105.324219 L 233.09375 100.925781 L 233.09375 130.945312 Z M 190.851562 121.09375 C 189.871094 119.386719 187.699219 118.8125 185.996094 119.796875 L 173.847656 126.808594 L 173.847656 100.925781 L 181.453125 105.324219 L 199.921875 115.992188 L 199.921875 145.992188 L 177.390625 132.988281 L 189.554688 125.953125 C 191.261719 124.972656 191.835938 122.800781 190.851562 121.09375 Z M 203.480469 79.699219 L 229.53125 94.765625 L 203.480469 109.8125 L 177.410156 94.765625 Z M 238.433594 91.6875 L 205.261719 72.5 C 204.148438 71.871094 202.792969 71.871094 201.699219 72.5 L 168.507812 91.6875 C 167.414062 92.316406 166.730469 93.484375 166.730469 94.765625 L 166.730469 130.925781 L 153.191406 138.738281 C 151.488281 139.722656 150.910156 141.894531 151.894531 143.601562 C 152.5625 144.75 153.75 145.382812 154.972656 145.382812 C 155.585938 145.382812 156.195312 145.234375 156.753906 144.898438 L 170.269531 137.105469 L 201.699219 155.25 C 202.238281 155.566406 202.851562 155.734375 203.480469 155.734375 C 204.09375 155.734375 204.703125 155.566406 205.261719 155.25 L 238.433594 136.085938 C 239.527344 135.453125 240.214844 134.285156 240.214844 133.003906 L 240.214844 94.765625 C 240.214844 93.484375 239.527344 92.316406 238.433594 91.6875 " fill-opacity="1" fill-rule="nonzero"/></g><path fill="#000000" d="M 310.273438 193.621094 L 284.222656 208.6875 L 284.222656 178.667969 L 310.273438 163.621094 Z M 251.050781 163.621094 L 277.101562 178.667969 L 277.101562 208.6875 L 251.050781 193.621094 Z M 280.664062 142.375 L 306.714844 157.441406 L 280.664062 172.488281 L 254.609375 157.441406 Z M 315.613281 154.359375 L 282.441406 135.195312 C 281.347656 134.546875 279.976562 134.546875 278.882812 135.195312 L 245.710938 154.359375 C 244.597656 154.992188 243.929688 156.160156 243.929688 157.441406 L 243.929688 195.679688 C 243.929688 196.960938 244.597656 198.128906 245.710938 198.761719 L 278.882812 217.925781 C 279.4375 218.261719 280.050781 218.410156 280.664062 218.410156 C 281.273438 218.410156 281.886719 218.261719 282.441406 217.925781 L 315.613281 198.761719 C 316.726562 198.128906 317.394531 196.960938 317.394531 195.679688 L 317.394531 157.441406 C 317.394531 156.160156 316.726562 154.992188 315.613281 154.359375 " fill-opacity="1" fill-rule="nonzero"/><path fill="#000000" d="M 251.050781 36.152344 L 258.652344 40.550781 L 277.101562 51.21875 L 277.101562 81.238281 L 254.648438 68.253906 L 264.976562 62.296875 C 266.679688 61.3125 267.257812 59.125 266.273438 57.417969 C 265.289062 55.710938 263.101562 55.132812 261.414062 56.117188 L 251.050781 62.109375 Z M 280.664062 14.945312 L 306.714844 29.992188 L 280.664062 45.042969 L 254.609375 29.992188 Z M 299.910156 56.117188 C 298.203125 55.132812 296.035156 55.710938 295.050781 57.417969 C 294.070312 59.125 294.644531 61.3125 296.347656 62.296875 L 306.675781 68.253906 L 284.222656 81.238281 L 284.222656 51.21875 L 302.671875 40.550781 L 310.273438 36.152344 L 310.273438 62.109375 Z M 230.632812 81.574219 C 231.226562 81.574219 231.839844 81.425781 232.394531 81.109375 L 247.527344 72.371094 L 278.882812 90.480469 C 279.4375 90.8125 280.050781 90.960938 280.664062 90.960938 C 281.273438 90.960938 281.886719 90.8125 282.441406 90.480469 L 313.796875 72.371094 L 328.929688 81.109375 C 329.484375 81.425781 330.097656 81.574219 330.691406 81.574219 C 331.933594 81.574219 333.121094 80.941406 333.785156 79.792969 C 334.769531 78.105469 334.195312 75.914062 332.488281 74.933594 L 317.394531 66.230469 L 317.394531 29.992188 C 317.394531 28.714844 316.726562 27.546875 315.613281 26.914062 L 282.441406 7.746094 C 281.347656 7.097656 279.976562 7.097656 278.882812 7.746094 L 245.710938 26.914062 C 244.597656 27.546875 243.929688 28.714844 243.929688 29.992188 L 243.929688 66.230469 L 228.835938 74.933594 C 227.128906 75.914062 226.554688 78.105469 227.539062 79.792969 C 228.207031 80.941406 229.390625 81.574219 230.632812 81.574219 " fill-opacity="1" fill-rule="nonzero"/><g clip-path="url(#822f2df034)"><path fill="#000000" d="M 207.03125 145.992188 L 207.03125 115.992188 L 225.5 105.324219 L 233.101562 100.925781 L 233.101562 126.808594 L 220.957031 119.796875 C 219.25 118.8125 217.078125 119.386719 216.097656 121.09375 C 215.113281 122.800781 215.6875 124.972656 217.394531 125.953125 L 229.558594 132.988281 Z M 173.855469 100.925781 L 181.460938 105.324219 L 199.910156 115.992188 L 199.910156 145.992188 L 173.855469 130.945312 Z M 203.46875 79.699219 L 229.539062 94.765625 L 203.46875 109.8125 L 177.417969 94.765625 Z M 250.195312 144.898438 C 250.753906 145.234375 251.363281 145.382812 251.976562 145.382812 C 253.199219 145.382812 254.386719 144.75 255.054688 143.601562 C 256.039062 141.894531 255.464844 139.722656 253.757812 138.738281 L 240.222656 130.925781 L 240.222656 94.765625 C 240.222656 93.484375 239.535156 92.316406 238.441406 91.6875 L 205.25 72.5 C 204.15625 71.871094 202.800781 71.871094 201.6875 72.5 L 168.515625 91.6875 C 167.421875 92.316406 166.738281 93.484375 166.738281 94.765625 L 166.738281 133.003906 C 166.738281 134.285156 167.421875 135.453125 168.515625 136.085938 L 201.6875 155.25 C 202.246094 155.566406 202.859375 155.734375 203.46875 155.734375 C 204.101562 155.734375 204.710938 155.566406 205.25 155.25 L 236.679688 137.105469 L 250.195312 144.898438 " fill-opacity="1" fill-rule="nonzero"/></g><g clip-path="url(#f49381dfa2)"><path fill="#000000" d="M 361.414062 145.992188 L 361.414062 115.992188 L 379.867188 105.324219 L 387.46875 100.925781 L 387.46875 130.945312 Z M 345.226562 121.09375 C 344.246094 119.386719 342.074219 118.8125 340.371094 119.796875 L 328.222656 126.808594 L 328.222656 100.925781 L 335.828125 105.324219 L 354.296875 115.992188 L 354.296875 145.992188 L 331.765625 132.988281 L 343.929688 125.953125 C 345.636719 124.972656 346.210938 122.800781 345.226562 121.09375 Z M 357.855469 79.699219 L 383.90625 94.765625 L 357.855469 109.8125 L 331.785156 94.765625 Z M 392.808594 91.6875 L 359.636719 72.5 C 358.523438 71.871094 357.167969 71.871094 356.074219 72.5 L 322.882812 91.6875 C 321.789062 92.316406 321.105469 93.484375 321.105469 94.765625 L 321.105469 130.925781 L 307.566406 138.738281 C 305.863281 139.722656 305.285156 141.894531 306.269531 143.601562 C 306.9375 144.75 308.125 145.382812 309.347656 145.382812 C 309.960938 145.382812 310.570312 145.234375 311.128906 144.898438 L 324.644531 137.105469 L 356.074219 155.25 C 356.613281 155.566406 357.226562 155.734375 357.855469 155.734375 C 358.46875 155.734375 359.078125 155.566406 359.636719 155.25 L 392.808594 136.085938 C 393.902344 135.453125 394.589844 134.285156 394.589844 133.003906 L 394.589844 94.765625 C 394.589844 93.484375 393.902344 92.316406 392.808594 91.6875 " fill-opacity="1" fill-rule="nonzero"/></g><path fill="#000000" d="M 464.648438 193.621094 L 438.597656 208.6875 L 438.597656 178.667969 L 464.648438 163.621094 Z M 405.425781 163.621094 L 431.476562 178.667969 L 431.476562 208.6875 L 405.425781 193.621094 Z M 435.039062 142.375 L 461.089844 157.441406 L 435.039062 172.488281 L 408.984375 157.441406 Z M 469.988281 154.359375 L 436.816406 135.195312 C 435.722656 134.546875 434.351562 134.546875 433.257812 135.195312 L 400.085938 154.359375 C 398.972656 154.992188 398.304688 156.160156 398.304688 157.441406 L 398.304688 195.679688 C 398.304688 196.960938 398.972656 198.128906 400.085938 198.761719 L 433.257812 217.925781 C 433.8125 218.261719 434.425781 218.410156 435.039062 218.410156 C 435.648438 218.410156 436.261719 218.261719 436.816406 217.925781 L 469.988281 198.761719 C 471.101562 198.128906 471.769531 196.960938 471.769531 195.679688 L 471.769531 157.441406 C 471.769531 156.160156 471.101562 154.992188 469.988281 154.359375 " fill-opacity="1" fill-rule="nonzero"/><path fill="#000000" d="M 405.425781 36.152344 L 413.027344 40.550781 L 431.476562 51.21875 L 431.476562 81.238281 L 409.023438 68.253906 L 419.351562 62.296875 C 421.054688 61.3125 421.632812 59.125 420.648438 57.417969 C 419.664062 55.710938 417.476562 55.132812 415.789062 56.117188 L 405.425781 62.109375 Z M 435.039062 14.945312 L 461.089844 29.992188 L 435.039062 45.042969 L 408.984375 29.992188 Z M 454.285156 56.117188 C 452.578125 55.132812 450.410156 55.710938 449.425781 57.417969 C 448.445312 59.125 449.019531 61.3125 450.722656 62.296875 L 461.050781 68.253906 L 438.597656 81.238281 L 438.597656 51.21875 L 457.046875 40.550781 L 464.648438 36.152344 L 464.648438 62.109375 Z M 385.007812 81.574219 C 385.601562 81.574219 386.214844 81.425781 386.769531 81.109375 L 401.902344 72.371094 L 433.257812 90.480469 C 433.8125 90.8125 434.425781 90.960938 435.039062 90.960938 C 435.648438 90.960938 436.261719 90.8125 436.816406 90.480469 L 468.171875 72.371094 L 483.304688 81.109375 C 483.859375 81.425781 484.472656 81.574219 485.066406 81.574219 C 486.308594 81.574219 487.496094 80.941406 488.160156 79.792969 C 489.144531 78.105469 488.570312 75.914062 486.863281 74.933594 L 471.769531 66.230469 L 471.769531 29.992188 C 471.769531 28.714844 471.101562 27.546875 469.988281 26.914062 L 436.816406 7.746094 C 435.722656 7.097656 434.351562 7.097656 433.257812 7.746094 L 400.085938 26.914062 C 398.972656 27.546875 398.304688 28.714844 398.304688 29.992188 L 398.304688 66.230469 L 383.210938 74.933594 C 381.503906 75.914062 380.929688 78.105469 381.914062 79.792969 C 382.582031 80.941406 383.765625 81.574219 385.007812 81.574219 " fill-opacity="1" fill-rule="nonzero"/><g clip-path="url(#d4803f137d)"><path fill="#000000" d="M 361.40625 145.992188 L 361.40625 115.992188 L 379.875 105.324219 L 387.476562 100.925781 L 387.476562 126.808594 L 375.332031 119.796875 C 373.625 118.8125 371.453125 119.386719 370.472656 121.09375 C 369.488281 122.800781 370.0625 124.972656 371.769531 125.953125 L 383.933594 132.988281 Z M 328.230469 100.925781 L 335.835938 105.324219 L 354.285156 115.992188 L 354.285156 145.992188 L 328.230469 130.945312 Z M 357.84375 79.699219 L 383.914062 94.765625 L 357.84375 109.8125 L 331.792969 94.765625 Z M 404.570312 144.898438 C 405.128906 145.234375 405.738281 145.382812 406.351562 145.382812 C 407.574219 145.382812 408.761719 144.75 409.429688 143.601562 C 410.414062 141.894531 409.839844 139.722656 408.132812 138.738281 L 394.597656 130.925781 L 394.597656 94.765625 C 394.597656 93.484375 393.910156 92.316406 392.816406 91.6875 L 359.625 72.5 C 358.53125 71.871094 357.175781 71.871094 356.0625 72.5 L 322.890625 91.6875 C 321.796875 92.316406 321.113281 93.484375 321.113281 94.765625 L 321.113281 133.003906 C 321.113281 134.285156 321.796875 135.453125 322.890625 136.085938 L 356.0625 155.25 C 356.621094 155.566406 357.234375 155.734375 357.84375 155.734375 C 358.476562 155.734375 359.085938 155.566406 359.625 155.25 L 391.054688 137.105469 L 404.570312 144.898438 " fill-opacity="1" fill-rule="nonzero"/></g><g clip-path="url(#2ab0140b79)"><path fill="#000000" d="M 515.789062 145.992188 L 515.789062 115.992188 L 534.242188 105.324219 L 541.84375 100.925781 L 541.84375 130.945312 Z M 499.601562 121.09375 C 498.621094 119.386719 496.449219 118.8125 494.746094 119.796875 L 482.597656 126.808594 L 482.597656 100.925781 L 490.203125 105.324219 L 508.671875 115.992188 L 508.671875 145.992188 L 486.140625 132.988281 L 498.304688 125.953125 C 500.011719 124.972656 500.585938 122.800781 499.601562 121.09375 Z M 512.230469 79.699219 L 538.28125 94.765625 L 512.230469 109.8125 L 486.160156 94.765625 Z M 547.183594 91.6875 L 514.011719 72.5 C 512.898438 71.871094 511.542969 71.871094 510.449219 72.5 L 477.257812 91.6875 C 476.164062 92.316406 475.480469 93.484375 475.480469 94.765625 L 475.480469 130.925781 L 461.941406 138.738281 C 460.238281 139.722656 459.660156 141.894531 460.644531 143.601562 C 461.3125 144.75 462.5 145.382812 463.722656 145.382812 C 464.335938 145.382812 464.945312 145.234375 465.503906 144.898438 L 479.019531 137.105469 L 510.449219 155.25 C 510.988281 155.566406 511.601562 155.734375 512.230469 155.734375 C 512.84375 155.734375 513.453125 155.566406 514.011719 155.25 L 547.183594 136.085938 C 548.277344 135.453125 548.964844 134.285156 548.964844 133.003906 L 548.964844 94.765625 C 548.964844 93.484375 548.277344 92.316406 547.183594 91.6875 " fill-opacity="1" fill-rule="nonzero"/></g>
</svg>
